<svg width="31" height="28" viewBox="0 0 31 28" fill="none" xmlns="http://www.w3.org/2000/svg">
<path d="M16.5938 21.2224L17.5309 26.2103H13.1113L14.2858 21.2224H16.5938Z" stroke="white" stroke-miterlimit="10" stroke-linecap="round" stroke-linejoin="round"/>
<path d="M16.5938 18.4901V21.2224H14.2858V18.4901H15.3065H16.5938Z" stroke="white" stroke-miterlimit="10" stroke-linecap="round" stroke-linejoin="round"/>
<path d="M15.3064 17.7431V18.4901H14.2857H11.6056V14.3906L11.8163 14.306L15.3064 17.7431Z" stroke="white" stroke-miterlimit="10" stroke-linecap="round" stroke-linejoin="round"/>
<path d="M15.5432 0.5C18.7276 0.5 21.3064 3.14085 21.3064 6.39249C21.3064 9.64886 18.7276 12.2893 15.5432 12.2893C12.362 12.2893 9.77936 9.64886 9.77936 6.39249C9.77974 3.14085 12.362 0.5 15.5432 0.5Z" stroke="white" stroke-miterlimit="10" stroke-linecap="round" stroke-linejoin="round"/>
<path d="M19.2776 14.3906V18.4901H16.5937H15.3064V17.7431L19.0635 14.306L19.2776 14.3906Z" stroke="white" stroke-miterlimit="10" stroke-linecap="round" stroke-linejoin="round"/>
<path d="M14.2857 18.4901V21.2223L13.1113 26.2103L13.1079 26.2256H3.84265V20.9262V20.9219C5.20581 20.695 6.2408 19.4829 6.2408 18.0274C6.2408 17.543 6.12448 17.0811 5.91725 16.6763L11.6056 14.3902V18.4897H14.2857V18.4901Z" stroke="white" stroke-miterlimit="10" stroke-linecap="round" stroke-linejoin="round"/>
<path d="M6.24077 18.0278C6.24077 19.4829 5.2054 20.695 3.84262 20.9223C3.68854 20.9494 3.53409 20.9648 3.37231 20.9648C1.78382 20.9648 0.5 19.6483 0.5 18.0282C0.5 16.412 1.78382 15.0956 3.37231 15.0956C4.47933 15.0956 5.4392 15.7386 5.91722 16.6775C6.12444 17.0811 6.24077 17.543 6.24077 18.0278Z" stroke="white" stroke-miterlimit="10" stroke-linecap="round" stroke-linejoin="round"/>
<path d="M27.5226 20.0795C28.5387 20.0795 29.3704 20.9341 29.3704 21.9729V22.9472H25.6703V21.9729C25.6703 20.9341 26.5019 20.0795 27.5226 20.0795Z" stroke="white" stroke-miterlimit="10" stroke-linecap="round" stroke-linejoin="round"/>
<path d="M30.4999 22.9468V26.8455C30.4999 27.207 30.2137 27.5 29.8639 27.5H25.1393C24.8119 27.5 24.5446 27.2228 24.5446 26.8876V26.2252V22.9464H25.6701H29.3701H30.4999V22.9468Z" stroke="white" stroke-miterlimit="10" stroke-linecap="round" stroke-linejoin="round"/>
<path d="M15.5432 0.5C18.7276 0.5 21.3064 3.14085 21.3064 6.39249C21.3064 9.64886 18.7276 12.2893 15.5432 12.2893C12.362 12.2893 9.77936 9.64886 9.77936 6.39249C9.77974 3.14085 12.362 0.5 15.5432 0.5Z" stroke="white" stroke-miterlimit="2.6131" stroke-linecap="round" stroke-linejoin="round"/>
<path d="M5.91724 16.6767L11.6056 14.3906L11.8163 14.306L15.3065 17.7431L19.0635 14.306L19.2777 14.3906L27.0403 17.5123" stroke="white" stroke-miterlimit="2.6131" stroke-linecap="round" stroke-linejoin="round"/>
<path d="M13.1079 26.2257H3.84265V20.9262" stroke="white" stroke-miterlimit="2.6131" stroke-linecap="round" stroke-linejoin="round"/>
<path d="M24.5444 26.2257H17.5348" stroke="white" stroke-miterlimit="2.6131" stroke-linecap="round" stroke-linejoin="round"/>
<path d="M23.1287 20.7451V26.2103H17.5309H13.1113H7.75415V20.7451" stroke="white" stroke-miterlimit="2.6131" stroke-linecap="round" stroke-linejoin="round"/>
<path d="M14.2857 18.4901H11.6056V14.3906V14.306" stroke="white" stroke-miterlimit="2.6131" stroke-linecap="round" stroke-linejoin="round"/>
<path d="M19.2778 14.306V14.3906V18.4901H16.5939" stroke="white" stroke-miterlimit="2.6131" stroke-linecap="round" stroke-linejoin="round"/>
<path d="M14.2858 21.2224V18.4901H15.3065H16.5938V21.2224" stroke="white" stroke-miterlimit="2.6131" stroke-linecap="round" stroke-linejoin="round"/>
<path d="M13.1078 26.2256H17.5347L17.5308 26.2103L16.5937 21.2224H14.2857L13.1112 26.2103L13.1078 26.2256Z" stroke="white" stroke-miterlimit="2.6131" stroke-linecap="round" stroke-linejoin="round"/>
<path d="M29.3701 22.9468H30.4999V26.8455C30.4999 27.207 30.2137 27.5 29.8639 27.5H25.1393C24.8119 27.5 24.5446 27.2228 24.5446 26.8876V26.2252V22.9464H25.6701" stroke="white" stroke-miterlimit="2.6131" stroke-linecap="round" stroke-linejoin="round"/>
<path d="M25.6703 22.9468V21.9726C25.6703 20.9337 26.5023 20.0792 27.5226 20.0792C28.5387 20.0792 29.3704 20.9337 29.3704 21.9726V22.9468H25.6703Z" stroke="white" stroke-miterlimit="2.6131" stroke-linecap="round" stroke-linejoin="round"/>
<path d="M26.5469 26.2032L27.5225 25.2253L28.4932 24.244" stroke="white" stroke-miterlimit="2.6131" stroke-linecap="round" stroke-linejoin="round"/>
<path d="M28.4932 26.2032L27.5225 25.2253L26.5469 24.244" stroke="white" stroke-miterlimit="2.6131" stroke-linecap="round" stroke-linejoin="round"/>
<path d="M3.84262 20.9219C3.68854 20.949 3.53409 20.9644 3.37231 20.9644C1.78382 20.9644 0.5 19.6479 0.5 18.0278C0.5 16.4116 1.78382 15.0952 3.37231 15.0952C4.47933 15.0952 5.4392 15.7382 5.91722 16.6771C6.12444 17.0815 6.24077 17.5434 6.24077 18.0282C6.24077 19.4829 5.20578 20.695 3.84262 20.9219Z" stroke="white" stroke-miterlimit="2.6131" stroke-linecap="round" stroke-linejoin="round"/>
<path d="M2.14478 17.608L2.73988 18.7591L5.21738 17.2741" stroke="white" stroke-miterlimit="2.6131" stroke-linecap="round" stroke-linejoin="round"/>
</svg>
