<svg width="20" height="20" viewBox="0 0 20 20" fill="none" xmlns="http://www.w3.org/2000/svg">
<g clip-path="url(#clip0_2_8374)">
<path d="M9.16667 11.6667C8.94566 11.6667 8.73369 11.5789 8.57741 11.4226C8.42113 11.2663 8.33334 11.0543 8.33334 10.8333V1.66667C8.33334 1.22464 8.50893 0.800716 8.82149 0.488155C9.13405 0.175595 9.55798 0 10 0L18.3333 0C18.7754 0 19.1993 0.175595 19.5118 0.488155C19.8244 0.800716 20 1.22464 20 1.66667V7.5C20 7.94203 19.8244 8.36595 19.5118 8.67851C19.1993 8.99107 18.7754 9.16667 18.3333 9.16667H12.7775L9.66667 11.5C9.52242 11.6082 9.34698 11.6667 9.16667 11.6667Z" fill="white"/>
<path d="M13.3333 10.8337V16.667C13.3333 16.888 13.2455 17.1 13.0893 17.2562C12.933 17.4125 12.721 17.5003 12.5 17.5003H4.16667C3.94565 17.5003 3.73369 17.4125 3.57741 17.2562C3.42113 17.1 3.33333 16.888 3.33333 16.667V5.00033C3.33333 4.77931 3.42113 4.56735 3.57741 4.41107C3.73369 4.25479 3.94565 4.16699 4.16667 4.16699H6.66667V1.66699H4.16667C3.50363 1.66699 2.86774 1.93038 2.3989 2.39923C1.93006 2.86807 1.66667 3.50395 1.66667 4.16699V17.5003C1.66667 18.1634 1.93006 18.7993 2.3989 19.2681C2.86774 19.7369 3.50363 20.0003 4.16667 20.0003H12.5C13.163 20.0003 13.7989 19.7369 14.2678 19.2681C14.7366 18.7993 15 18.1634 15 17.5003V10.8337H13.3333Z" fill="white"/>
</g>
<defs>
<clipPath id="clip0_2_8374">
<rect width="20" height="20" fill="white"/>
</clipPath>
</defs>
</svg>
