<svg width="20" height="20" viewBox="0 0 20 20" fill="none" xmlns="http://www.w3.org/2000/svg">
<g clip-path="url(#clip0_2_8322)">
<path d="M19.1667 17.5007H18.3333V10.834H16.6667V17.5007H13.3333V10.834H11.6667V17.5007H8.33333V10.834H6.66667V17.5007H3.33333V10.834H1.66667V17.5007H0.833333C0.373333 17.5007 0 17.8732 0 18.334C0 18.7948 0.373333 19.1673 0.833333 19.1673H19.1667C19.6267 19.1673 20 18.7948 20 18.334C20 17.8732 19.6267 17.5007 19.1667 17.5007Z" fill="white"/>
<path d="M19.5658 5.10223L10.3992 0.102227C10.15 -0.0327734 9.85 -0.0327734 9.60083 0.102227L0.434167 5.10223C0.166667 5.24806 0 5.52889 0 5.83389V8.33389C0 8.79473 0.373333 9.16723 0.833333 9.16723H19.1667C19.6267 9.16723 20 8.79473 20 8.33389V5.83389C20 5.52889 19.8333 5.24806 19.5658 5.10223ZM10 6.66723C9.07917 6.66723 8.33333 5.92139 8.33333 5.00056C8.33333 4.07973 9.07917 3.33389 10 3.33389C10.9208 3.33389 11.6667 4.07973 11.6667 5.00056C11.6667 5.92139 10.9208 6.66723 10 6.66723Z" fill="white"/>
</g>
<defs>
<clipPath id="clip0_2_8322">
<rect width="20" height="20" fill="white"/>
</clipPath>
</defs>
</svg>
