<svg width="20" height="20" viewBox="0 0 20 20" fill="none" xmlns="http://www.w3.org/2000/svg">
<g clip-path="url(#clip0_1_32954)">
<path d="M8.3335 15.8335C6.85014 15.8335 5.40009 15.3936 4.16672 14.5695C2.93335 13.7454 1.97206 12.5741 1.4044 11.2036C0.836746 9.83318 0.688221 8.32518 0.97761 6.87032C1.267 5.41546 1.9813 4.07909 3.0302 3.0302C4.07909 1.9813 5.41546 1.267 6.87032 0.97761C8.32518 0.688221 9.83318 0.836746 11.2036 1.4044C12.5741 1.97206 13.7454 2.93335 14.5695 4.16672C15.3936 5.40009 15.8335 6.85014 15.8335 8.3335C15.8311 10.3219 15.0401 12.2281 13.6341 13.6341C12.2281 15.0401 10.3219 15.8311 8.3335 15.8335ZM8.3335 2.50017C7.17977 2.50017 6.05196 2.84229 5.09267 3.48326C4.13339 4.12424 3.38571 5.03528 2.9442 6.10118C2.50269 7.16708 2.38717 8.33997 2.61225 9.47153C2.83733 10.6031 3.3929 11.6425 4.20871 12.4583C5.02452 13.2741 6.06392 13.8297 7.19547 14.0547C8.32703 14.2798 9.49992 14.1643 10.5658 13.7228C11.6317 13.2813 12.5428 12.5336 13.1837 11.5743C13.8247 10.615 14.1668 9.48722 14.1668 8.3335C14.1651 6.78694 13.5499 5.30424 12.4563 4.21066C11.3628 3.11708 9.88005 2.50193 8.3335 2.50017Z" fill="white"/>
<path d="M5.83366 8.33366H4.16699C4.16832 7.229 4.60773 6.16996 5.38884 5.38884C6.16996 4.60773 7.229 4.16832 8.33366 4.16699V5.83366C7.67062 5.83366 7.03473 6.09705 6.56589 6.56589C6.09705 7.03473 5.83366 7.67062 5.83366 8.33366Z" fill="white"/>
<path d="M18.9228 17.7444L15.3761 14.1978C15.02 14.6255 14.6255 15.02 14.1978 15.3761L17.7444 18.9228C17.9016 19.0746 18.1121 19.1585 18.3306 19.1566C18.5491 19.1547 18.7581 19.0671 18.9126 18.9126C19.0671 18.7581 19.1548 18.5491 19.1566 18.3306C19.1585 18.1121 19.0746 17.9016 18.9228 17.7444Z" fill="white"/>
</g>
<defs>
<clipPath id="clip0_1_32954">
<rect width="20" height="20" fill="white"/>
</clipPath>
</defs>
</svg>
