<svg width="28" height="28" viewBox="0 0 28 28" fill="none" xmlns="http://www.w3.org/2000/svg">
<g clip-path="url(#clip0_56_17961)">
<path d="M21.0001 7V8.16667H23.3334V7C23.3334 3.1395 20.1939 0 16.3334 0H15.1667V2.33333H16.3334C18.9071 2.33333 21.0001 4.42633 21.0001 7Z" fill="#FF4267"/>
<path d="M7.00008 21V19.8334H4.66675V21C4.66675 24.8605 7.80625 28 11.6667 28H12.8334V25.6667H11.6667C9.09308 25.6667 7.00008 23.5737 7.00008 21Z" fill="#FF4267"/>
<path d="M10.5 0H2.33333C1.04417 0 0 1.04417 0 2.33333V15.1667C0 16.4558 1.04417 17.5 2.33333 17.5H10.5C11.7892 17.5 12.8333 16.4558 12.8333 15.1667V2.33333C12.8333 1.04417 11.7892 0 10.5 0ZM10.5 14H2.33333V3.5H10.5V14Z" fill="#FF4267"/>
<path d="M25.6667 10.5H17.5001C16.2109 10.5 15.1667 11.5442 15.1667 12.8333V25.6667C15.1667 26.9558 16.2109 28 17.5001 28H25.6667C26.9559 28 28.0001 26.9558 28.0001 25.6667V12.8333C28.0001 11.5442 26.9559 10.5 25.6667 10.5ZM25.6667 24.5H17.5001V14H25.6667V24.5Z" fill="#FF4267"/>
</g>
<defs>
<clipPath id="clip0_56_17961">
<rect width="28" height="28" fill="white"/>
</clipPath>
</defs>
</svg>
